<?xml version="1.0" encoding="utf-8"?>
<!-- Generator: Adobe Illustrator 17.0.0, SVG Export Plug-In . SVG Version: 6.00 Build 0)  -->
<!DOCTYPE svg PUBLIC "-//W3C//DTD SVG 1.1//EN" "http://www.w3.org/Graphics/SVG/1.1/DTD/svg11.dtd">
<svg version="1.1" id="图层_1" xmlns="http://www.w3.org/2000/svg" xmlns:xlink="http://www.w3.org/1999/xlink" x="0px" y="0px"
	 width="80px" height="65px" viewBox="-32.686 -26.671 80 65" enable-background="new -32.686 -26.671 80 65" xml:space="preserve">
<g id="XMLID_1_">
	<g id="XMLID_2_">
		<g id="XMLID_3_">
			<g id="XMLID_9_">
				<path id="XMLID_15_" fill="#4ACBD6" d="M45.745,25.204h-53.23v6.629h51.813c0.629,0,1.203-0.385,1.444-0.981l1.416-3.429
					C47.626,26.369,46.866,25.204,45.745,25.204z M16.393,29.347H4.328c-0.481,0-0.875-0.396-0.875-0.892
					c0-0.491,0.388-0.892,0.875-0.892h12.065c0.481,0,0.875,0.396,0.875,0.892C17.268,28.951,16.874,29.347,16.393,29.347z"/>
				<path id="XMLID_14_" fill="#4ACBD6" d="M-17.925-20.382h56.577v35.756H-7.485v6.295h47.739c2.521,0,4.561-2.085,4.561-4.656
					v-39.035c0.005-2.565-2.04-4.65-4.556-4.65h-59.792c-2.521,0-4.567,2.085-4.567,4.65V-3.56h6.169v-16.821H-17.925z"/>
				<path id="XMLID_13_" fill="#4ACBD6" d="M-7.485,15.374"/>
				<path id="XMLID_12_" fill="#4ACBD6" d="M-17.925-3.555"/>
				<path id="XMLID_11_" fill="#4ACBD6" d="M-24.1-3.555"/>
				<path id="XMLID_10_" fill="#4ACBD6" d="M-7.485,31.833"/>
			</g>
			<g id="XMLID_4_">
				<path id="XMLID_5_" fill="#4ACBD6" d="M-9.684,1.541c0-1.45-1.154-2.626-2.576-2.626H-30.11c-1.422,0-2.576,1.176-2.576,2.626
					v34.162c0,1.45,1.154,2.626,2.576,2.626h17.851c1.422,0,2.576-1.176,2.576-2.626V1.541z M-21.185,36.584
					c-0.831,0-1.504-0.686-1.504-1.533c0-0.847,0.673-1.533,1.504-1.533c0.831,0,1.504,0.686,1.504,1.533
					C-19.681,35.898-20.354,36.584-21.185,36.584z M-29.202,31.661V2.467h16.035v29.194H-29.202z"/>
			</g>
		</g>
	</g>
</g>
</svg>
