<?xml version="1.0" encoding="utf-8"?>
<!-- Generator: Adobe Illustrator 17.0.0, SVG Export Plug-In . SVG Version: 6.00 Build 0)  -->
<!DOCTYPE svg PUBLIC "-//W3C//DTD SVG 1.1//EN" "http://www.w3.org/Graphics/SVG/1.1/DTD/svg11.dtd">
<svg version="1.1" id="图层_1" xmlns="http://www.w3.org/2000/svg" xmlns:xlink="http://www.w3.org/1999/xlink" x="0px" y="0px"
	 width="75px" height="71px" viewBox="-30.57 -29.108 75 71" enable-background="new -30.57 -29.108 75 71" xml:space="preserve">
<g id="XMLID_1_">
	<path id="XMLID_8_" fill="#4ACBD6" d="M25.145,12.101l4.166-4.276C23.674,2.032,15.877-1.55,7.269-1.55
		c-8.603,0-16.394,3.582-22.037,9.369l4.166,4.276C-6.025,7.397,0.294,4.487,7.269,4.487C14.243,4.487,20.568,7.403,25.145,12.101z"
		/>
	<path id="XMLID_7_" fill="#4ACBD6" d="M17.165,20.299l4.161-4.271c-3.598-3.699-8.565-5.981-14.057-5.981
		c-5.486,0-10.453,2.283-14.046,5.97l4.161,4.271c2.532-2.599,6.027-4.21,9.885-4.21C11.132,16.083,14.627,17.694,17.165,20.299z"/>
	<path id="XMLID_6_" fill="#4ACBD6" d="M11.392,21.482c-0.346-0.361-1.001-0.422-1.407,0l-0.611,0.622l-2.099,2.155L5.18,22.093
		l-0.606-0.611c-0.352-0.361-1.001-0.422-1.407,0l-2.31,2.371l6.422,6.592l5.952-6.109l0.471-0.483L11.392,21.482z"/>
	<path id="XMLID_2_" fill="#4ACBD6" d="M43.265,2.282L9.152-28.253c-0.638-0.572-1.428-0.855-2.218-0.855
		c-0.795,0-1.585,0.283-2.224,0.855L-29.404,2.282c-2.354,2.105-0.904,6.081,2.218,6.081h2.5v33.528h63.228V8.364h2.5
		C44.169,8.364,45.619,4.387,43.265,2.282z M-17.923,34.95V8.364V1.421h-0.233L6.928-21.033L32.017,1.421h-0.233v6.942V34.95
		H-17.923z"/>
</g>
</svg>
