<!-- Generator: Adobe Illustrator 17.0.0, SVG Export Plug-In  -->
<svg version="1.1"
	 xmlns="http://www.w3.org/2000/svg" xmlns:xlink="http://www.w3.org/1999/xlink" xmlns:a="http://ns.adobe.com/AdobeSVGViewerExtensions/3.0/"
	 x="0px" y="0px" width="48px" height="46px" viewBox="0 0 48 46" enable-background="new 0 0 48 46" xml:space="preserve">
<defs>
</defs>
<g>
	<defs>
		<rect id="SVGID_1_" x="0" y="0" width="48" height="46"/>
	</defs>
	<clipPath id="SVGID_2_">
		<use xlink:href="#SVGID_1_"  overflow="visible"/>
	</clipPath>
	<path clip-path="url(#SVGID_2_)" fill="#ffffff" d="M47.568,22.168l-12.005-8.368c-0.665-0.463-1.572,0.017-1.572,0.832v4.581
		H0.118v7.573h33.873v4.581c0,0.816,0.907,1.295,1.572,0.832l12.005-8.367C48.145,23.43,48.145,22.571,47.568,22.168"/>
	<path clip-path="url(#SVGID_2_)" fill="#ffffff" d="M34.912,35.111c-0.39-0.272-0.922,0.01-0.922,0.487v3.011H0v3.786h33.991v3.011
		c0,0.478,0.532,0.759,0.922,0.488l7.036-4.904c0.338-0.235,0.338-0.74,0-0.975L34.912,35.111z"/>
	<path clip-path="url(#SVGID_2_)" fill="#ffffff" d="M33.991,10.402c0,0.478,0.532,0.759,0.922,0.487l7.036-4.903
		c0.338-0.236,0.338-0.74,0-0.975l-7.036-4.904c-0.389-0.272-0.922,0.009-0.922,0.487v3.011H0.117v3.786h33.874V10.402z"/>
</g>
</svg>
