<?xml version="1.0" encoding="utf-8"?>
<!-- Generator: Adobe Illustrator 17.0.0, SVG Export Plug-In . SVG Version: 6.00 Build 0)  -->
<!DOCTYPE svg PUBLIC "-//W3C//DTD SVG 1.1//EN" "http://www.w3.org/Graphics/SVG/1.1/DTD/svg11.dtd">
<svg version="1.1" id="图层_1" xmlns="http://www.w3.org/2000/svg" xmlns:xlink="http://www.w3.org/1999/xlink" x="0px" y="0px"
	 width="92px" height="72px" viewBox="-37.495 -29.486 92 72" enable-background="new -37.495 -29.486 92 72" xml:space="preserve">
<g id="XMLID_4_">
	<g id="XMLID_10_">
		<g id="XMLID_12_">
			<g id="XMLID_14_">
				<path id="XMLID_18_" fill="#4ACBD6" d="M54.505,6.638c0.038-14.497-6.36-27.469-16.431-36.119l-4.803,5.848
					c0.876,0.757,1.736,1.537,2.553,2.382c7.258,7.456,11.239,17.355,11.212,27.873c-0.032,12.027-5.392,22.799-13.792,30.006
					l4.824,5.87C48.074,33.897,54.462,21.041,54.505,6.638z"/>
				<path id="XMLID_17_" fill="#4ACBD6" d="M37.208,6.588c0.022-9.042-3.964-17.139-10.249-22.534l-4.797,5.848
					c0.481,0.415,0.952,0.846,1.406,1.31c4.002,4.112,6.193,9.567,6.182,15.359c-0.016,6.627-2.969,12.563-7.599,16.537l4.808,5.859
					C33.201,23.6,37.181,15.575,37.208,6.588z"/>
				<path id="XMLID_16_" fill="#4ACBD6" d="M-30.026,6.406c0.032-12.038,5.403-22.821,13.797-30.028l-4.814-5.864
					c-10.017,8.594-16.415,21.456-16.453,35.87c-0.038,14.503,6.366,27.48,16.447,36.13l4.808-5.859
					C-24.687,29.403-30.058,18.532-30.026,6.406z"/>
				<path id="XMLID_15_" fill="#4ACBD6" d="M-12.734,6.45c0.016-6.638,2.98-12.579,7.61-16.553l-4.808-5.853
					c-6.252,5.361-10.244,13.392-10.271,22.384c-0.022,9.053,3.97,17.15,10.265,22.55l4.797-5.842
					c-0.487-0.42-0.963-0.857-1.417-1.321C-10.555,17.703-12.751,12.248-12.734,6.45z"/>
			</g>
		</g>
	</g>
	<path id="XMLID_9_" fill="#4ACBD6" d="M17.705,6.511c0-5.195-4.121-9.401-9.205-9.401c-5.079,0-9.2,4.206-9.2,9.401
		c0,5.19,4.121,9.401,9.2,9.401C13.584,15.918,17.705,11.706,17.705,6.511"/>
</g>
</svg>
