<?xml version="1.0" encoding="utf-8"?>
<!-- Generator: Adobe Illustrator 17.0.0, SVG Export Plug-In . SVG Version: 6.00 Build 0)  -->
<!DOCTYPE svg PUBLIC "-//W3C//DTD SVG 1.1//EN" "http://www.w3.org/Graphics/SVG/1.1/DTD/svg11.dtd">
<svg version="1.1" id="图层_1" xmlns="http://www.w3.org/2000/svg" xmlns:xlink="http://www.w3.org/1999/xlink" x="0px" y="0px"
	 width="188.439px" height="48.209px" viewBox="-0.5 -0.5 188.439 48.209" enable-background="new -0.5 -0.5 188.439 48.209"
	 xml:space="preserve">
<path id="XMLID_685_" fill="transparent" stroke="#000000" d="M4.958,0l177.545,0.034c2.727,0.001,4.937,2.202,4.936,4.916l-0.018,37.347
	c-0.001,2.714-2.213,4.913-4.94,4.912L4.936,47.175C2.209,47.174-0.001,44.973,0,42.259L0.018,4.912
	C0.019,2.198,2.231-0.001,4.958,0z"/>
<g>
	<g>
		<path fill="#040000" d="M19.754,12.108c-0.054,0.486-0.177,0.94-0.367,1.361c-0.19,0.419-0.448,0.782-0.775,1.089
			c-0.327,0.308-0.723,0.547-1.19,0.718c-0.468,0.171-1.01,0.257-1.627,0.257c-0.671,0-1.275-0.113-1.809-0.339
			c-0.535-0.225-0.989-0.555-1.361-0.988c-0.372-0.434-0.66-0.964-0.864-1.591c-0.204-0.628-0.306-1.343-0.306-2.146
			c0-0.812,0.109-1.535,0.327-2.167c0.217-0.631,0.521-1.165,0.911-1.597c0.391-0.433,0.851-0.763,1.382-0.988
			c0.531-0.226,1.103-0.339,1.721-0.339c0.599,0,1.115,0.077,1.551,0.231c0.436,0.153,0.805,0.37,1.11,0.65
			c0.303,0.28,0.549,0.614,0.735,1.001c0.186,0.388,0.329,0.818,0.428,1.287l-1.224,0.204c-0.082-0.352-0.189-0.671-0.32-0.955
			c-0.132-0.284-0.3-0.525-0.504-0.725c-0.203-0.198-0.449-0.349-0.735-0.453S16.204,6.46,15.795,6.46
			c-0.48,0-0.909,0.098-1.285,0.291c-0.376,0.195-0.694,0.465-0.953,0.812c-0.257,0.348-0.455,0.767-0.592,1.26
			c-0.135,0.492-0.204,1.035-0.204,1.631c0,0.595,0.068,1.139,0.204,1.632c0.137,0.492,0.335,0.913,0.592,1.266
			c0.259,0.352,0.577,0.623,0.953,0.812c0.376,0.19,0.809,0.285,1.298,0.285c0.445,0,0.824-0.056,1.136-0.169
			c0.314-0.113,0.572-0.274,0.776-0.48c0.204-0.208,0.364-0.457,0.483-0.745c0.117-0.289,0.204-0.606,0.257-0.948L19.754,12.108
			L19.754,12.108z"/>
		<path fill="#040000" d="M24.448,15.506c-0.535,0-1.011-0.086-1.428-0.257c-0.418-0.172-0.772-0.415-1.062-0.732
			c-0.29-0.315-0.511-0.704-0.666-1.164c-0.155-0.46-0.232-0.974-0.232-1.544c0-0.568,0.082-1.083,0.245-1.544
			c0.163-0.46,0.394-0.852,0.695-1.178c0.299-0.324,0.659-0.574,1.081-0.751c0.422-0.175,0.891-0.263,1.408-0.263
			c0.525,0,0.998,0.085,1.414,0.257c0.418,0.171,0.774,0.417,1.068,0.738c0.294,0.32,0.519,0.706,0.674,1.157
			c0.155,0.452,0.232,0.962,0.232,1.53c0,0.577-0.08,1.096-0.238,1.557c-0.159,0.459-0.387,0.852-0.681,1.178
			c-0.295,0.324-0.656,0.576-1.081,0.751C25.45,15.417,24.974,15.506,24.448,15.506z M24.461,14.53c0.382,0,0.708-0.067,0.98-0.202
			c0.272-0.135,0.497-0.326,0.674-0.569c0.177-0.244,0.306-0.534,0.388-0.873s0.122-0.711,0.122-1.117
			c0-0.397-0.04-0.763-0.122-1.096c-0.082-0.335-0.211-0.622-0.388-0.861c-0.177-0.238-0.401-0.425-0.674-0.561
			c-0.272-0.135-0.598-0.204-0.98-0.204c-0.381,0-0.705,0.068-0.973,0.204c-0.267,0.135-0.489,0.323-0.666,0.561
			c-0.177,0.24-0.306,0.527-0.388,0.861c-0.082,0.333-0.122,0.703-0.122,1.109s0.04,0.776,0.122,1.111
			c0.082,0.333,0.21,0.622,0.382,0.866c0.171,0.244,0.394,0.434,0.666,0.569C23.755,14.463,24.08,14.53,24.461,14.53z"/>
		<path fill="#040000" d="M29.469,8.288h1.17v1.07c0.317-0.433,0.667-0.756,1.047-0.967c0.381-0.213,0.77-0.318,1.171-0.318
			c0.525,0,0.95,0.113,1.271,0.338c0.323,0.226,0.561,0.55,0.714,0.976c0.318-0.434,0.681-0.762,1.088-0.981
			c0.409-0.222,0.845-0.332,1.307-0.332c0.688,0,1.221,0.187,1.597,0.561c0.376,0.375,0.565,0.977,0.565,1.808v4.847h-1.184v-4.577
			c0-0.315-0.027-0.58-0.082-0.793c-0.053-0.211-0.134-0.379-0.238-0.501c-0.104-0.12-0.234-0.207-0.387-0.257
			c-0.154-0.049-0.332-0.074-0.531-0.074c-0.21,0-0.427,0.037-0.653,0.109c-0.228,0.073-0.449,0.199-0.668,0.379
			c-0.181,0.153-0.33,0.339-0.449,0.555c-0.118,0.217-0.176,0.465-0.176,0.745v4.414H33.85v-4.563c0-0.614-0.107-1.04-0.32-1.279
			c-0.214-0.239-0.521-0.36-0.919-0.36c-0.462,0-0.898,0.19-1.306,0.57c-0.155,0.144-0.302,0.329-0.442,0.555
			c-0.141,0.226-0.211,0.528-0.211,0.907v4.171h-1.184L29.469,8.288L29.469,8.288z"/>
		<path fill="#040000" d="M41.184,8.288h1.171v1.003c0.29-0.397,0.628-0.699,1.013-0.907c0.385-0.208,0.837-0.311,1.353-0.311
			c0.5,0,0.937,0.089,1.313,0.271c0.376,0.18,0.69,0.433,0.94,0.758c0.248,0.324,0.434,0.709,0.558,1.157
			c0.122,0.446,0.183,0.941,0.183,1.483c0,0.577-0.073,1.099-0.217,1.563c-0.146,0.466-0.354,0.86-0.626,1.186
			c-0.272,0.324-0.601,0.576-0.986,0.751c-0.387,0.175-0.819,0.265-1.3,0.265c-0.399,0-0.791-0.08-1.176-0.238
			c-0.387-0.158-0.733-0.44-1.041-0.847v3.494h-1.184L41.184,8.288L41.184,8.288z M42.354,11.986c0,0.451,0.052,0.837,0.156,1.157
			c0.104,0.321,0.247,0.585,0.428,0.793c0.181,0.207,0.399,0.358,0.653,0.453c0.254,0.094,0.531,0.141,0.83,0.141
			c0.29,0,0.56-0.049,0.81-0.149c0.248-0.1,0.464-0.259,0.645-0.481c0.181-0.221,0.324-0.509,0.428-0.859
			c0.104-0.352,0.156-0.781,0.156-1.286c0-0.515-0.056-0.946-0.169-1.294c-0.113-0.347-0.26-0.625-0.442-0.831
			c-0.181-0.208-0.388-0.357-0.619-0.448C45,9.093,44.762,9.047,44.517,9.047c-0.308,0-0.594,0.052-0.857,0.156
			c-0.263,0.104-0.492,0.257-0.687,0.459c-0.195,0.204-0.347,0.461-0.457,0.772c-0.108,0.312-0.162,0.671-0.162,1.077V11.986z"/>
		<path fill="#040000" d="M53.688,14.328c-0.254,0.307-0.577,0.571-0.967,0.791c-0.39,0.222-0.875,0.332-1.456,0.332
			c-0.354,0-0.678-0.043-0.973-0.128c-0.294-0.086-0.549-0.217-0.761-0.392c-0.213-0.177-0.379-0.396-0.497-0.657
			c-0.117-0.262-0.177-0.568-0.177-0.921c0-0.478,0.103-0.867,0.306-1.165c0.204-0.297,0.476-0.532,0.817-0.703
			c0.339-0.171,0.723-0.293,1.15-0.366c0.425-0.073,0.865-0.118,1.319-0.135l1.211-0.04v-0.271c0-0.596-0.126-1.025-0.381-1.287
			c-0.254-0.262-0.667-0.392-1.237-0.392c-0.562,0-0.976,0.092-1.239,0.276c-0.263,0.186-0.436,0.44-0.516,0.766l-1.075-0.122
			c0.126-0.641,0.43-1.108,0.912-1.401c0.48-0.295,1.133-0.44,1.959-0.44c0.509,0,0.937,0.061,1.286,0.183
			c0.347,0.12,0.631,0.294,0.848,0.52c0.219,0.226,0.375,0.506,0.47,0.839c0.095,0.335,0.143,0.71,0.143,1.124v4.55h-1.142
			C53.688,15.289,53.688,14.328,53.688,14.328z M53.659,11.782l-1.129,0.04c-0.48,0.019-0.88,0.064-1.197,0.135
			c-0.318,0.073-0.569,0.17-0.755,0.291c-0.186,0.122-0.317,0.274-0.394,0.454c-0.077,0.181-0.116,0.388-0.116,0.623
			c0,0.353,0.107,0.634,0.32,0.846c0.213,0.213,0.565,0.318,1.055,0.318c0.699,0,1.243-0.171,1.633-0.515
			c0.39-0.343,0.584-0.812,0.584-1.408L53.659,11.782L53.659,11.782z"/>
		<path fill="#040000" d="M57.034,9.222h-1.087V8.288h1.087V6.38h1.184v1.908h1.865v0.934h-1.865v4.103
			c0,0.344,0.077,0.619,0.232,0.825c0.153,0.208,0.39,0.312,0.708,0.312c0.199,0,0.374-0.013,0.524-0.042
			c0.149-0.027,0.287-0.062,0.415-0.107l0.204,0.906c-0.181,0.064-0.379,0.116-0.592,0.156c-0.213,0.04-0.466,0.061-0.756,0.061
			c-0.399,0-0.721-0.058-0.965-0.176c-0.246-0.118-0.44-0.284-0.586-0.501c-0.144-0.217-0.242-0.474-0.291-0.772
			c-0.051-0.297-0.076-0.623-0.076-0.974L57.034,9.222L57.034,9.222z"/>
		<path fill="#040000" d="M61.334,5.622h1.265v1.367h-1.265V5.622z M61.374,8.288h1.184v7.001h-1.184V8.288z"/>
		<path fill="#040000" d="M64.408,5.622h1.184v3.642c0.29-0.379,0.626-0.672,1.007-0.88c0.381-0.208,0.83-0.311,1.346-0.311
			c0.5,0,0.937,0.089,1.313,0.271c0.376,0.18,0.69,0.433,0.94,0.758c0.248,0.324,0.435,0.709,0.558,1.157
			c0.122,0.446,0.183,0.941,0.183,1.483c0,0.577-0.073,1.099-0.217,1.563c-0.146,0.466-0.354,0.86-0.626,1.186
			c-0.272,0.324-0.601,0.576-0.986,0.751c-0.387,0.175-0.82,0.265-1.3,0.265c-0.408,0-0.805-0.085-1.19-0.251
			c-0.387-0.167-0.733-0.454-1.041-0.86v0.894h-1.17L64.408,5.622L64.408,5.622z M65.578,11.986c0,0.451,0.052,0.837,0.156,1.157
			c0.104,0.321,0.247,0.585,0.428,0.793c0.181,0.207,0.399,0.358,0.653,0.453c0.254,0.094,0.531,0.141,0.83,0.141
			c0.29,0,0.561-0.049,0.811-0.149c0.249-0.1,0.464-0.259,0.646-0.481c0.181-0.221,0.324-0.509,0.428-0.859
			c0.104-0.352,0.156-0.781,0.156-1.286c0-0.515-0.057-0.946-0.17-1.294c-0.113-0.347-0.26-0.625-0.442-0.831
			c-0.181-0.208-0.388-0.357-0.618-0.448c-0.232-0.089-0.47-0.135-0.715-0.135c-0.308,0-0.594,0.052-0.857,0.156
			s-0.492,0.257-0.687,0.459c-0.195,0.204-0.347,0.461-0.457,0.772c-0.109,0.312-0.162,0.671-0.162,1.077
			C65.578,11.511,65.578,11.986,65.578,11.986z"/>
		<path fill="#040000" d="M72.558,5.622h1.184v9.667h-1.184V5.622z"/>
		<path fill="#040000" d="M81.674,13.326c-0.118,0.677-0.42,1.209-0.904,1.597c-0.486,0.388-1.182,0.583-2.088,0.583
			c-1.071,0-1.892-0.323-2.463-0.968s-0.858-1.547-0.858-2.701c0-0.605,0.082-1.142,0.245-1.612
			c0.164-0.469,0.393-0.861,0.687-1.178c0.294-0.315,0.647-0.558,1.054-0.724c0.409-0.167,0.852-0.25,1.334-0.25
			c0.544,0,1.011,0.085,1.401,0.257c0.39,0.171,0.709,0.407,0.959,0.711c0.248,0.302,0.436,0.66,0.558,1.075
			c0.122,0.416,0.183,0.872,0.183,1.368v0.595h-5.225c0,0.353,0.048,0.68,0.144,0.982c0.095,0.304,0.231,0.565,0.408,0.785
			c0.177,0.222,0.397,0.396,0.66,0.522c0.262,0.126,0.567,0.189,0.912,0.189c0.589,0,1.02-0.11,1.292-0.332
			c0.272-0.22,0.458-0.521,0.558-0.9L81.674,13.326L81.674,13.326z M80.598,11.2c0-0.335-0.036-0.637-0.109-0.907
			c-0.073-0.271-0.186-0.504-0.339-0.698C79.995,9.4,79.796,9.25,79.551,9.141c-0.246-0.109-0.54-0.162-0.885-0.162
			c-0.624,0-1.112,0.189-1.462,0.568c-0.349,0.379-0.556,0.93-0.619,1.653C76.585,11.2,80.598,11.2,80.598,11.2z"/>
		<path fill="#040000" d="M85.578,8.288h1.292l1.416,5.579l1.618-5.537h1.197l1.58,5.537l1.401-5.579h1.251l-2.054,7.001h-1.252
			L90.449,9.71l-1.591,5.579h-1.239L85.578,8.288z"/>
		<path fill="#040000" d="M96.341,5.622h1.266v1.367h-1.266V5.622z M96.381,8.288h1.184v7.001h-1.184V8.288z"/>
		<path fill="#040000" d="M99.823,9.222h-1.087V8.288h1.087V6.38h1.184v1.908h1.865v0.934h-1.865v4.103
			c0,0.344,0.077,0.619,0.232,0.825c0.153,0.208,0.39,0.312,0.708,0.312c0.199,0,0.373-0.013,0.523-0.042
			c0.149-0.027,0.287-0.062,0.415-0.107l0.204,0.906c-0.182,0.064-0.379,0.116-0.592,0.156c-0.213,0.04-0.465,0.061-0.755,0.061
			c-0.399,0-0.721-0.058-0.965-0.176c-0.245-0.118-0.44-0.284-0.586-0.501c-0.144-0.217-0.242-0.474-0.291-0.772
			c-0.051-0.297-0.076-0.623-0.076-0.974V9.222H99.823z"/>
		<path fill="#040000" d="M104.136,5.622h1.184v3.709c0.345-0.442,0.723-0.763,1.136-0.961c0.412-0.199,0.849-0.298,1.313-0.298
			c0.797,0,1.389,0.216,1.774,0.65c0.387,0.433,0.579,1.069,0.579,1.908v4.658h-1.197V10.86c0-0.65-0.116-1.108-0.346-1.374
			c-0.232-0.266-0.592-0.4-1.081-0.4c-0.263,0-0.525,0.046-0.782,0.135c-0.259,0.091-0.492,0.235-0.702,0.434
			c-0.226,0.198-0.398,0.408-0.516,0.629c-0.119,0.221-0.177,0.509-0.177,0.86v4.144h-1.184V5.622H104.136z"/>
	</g>
	<g>
		<path fill="#040000" d="M19.199,38.353c-0.547,0.616-1.163,1.117-1.844,1.504c-0.681,0.388-1.56,0.582-2.639,0.582
			c-0.618,0-1.207-0.081-1.763-0.238c-0.556-0.159-1.043-0.406-1.458-0.741c-0.416-0.332-0.748-0.759-0.995-1.278
			c-0.249-0.519-0.371-1.14-0.371-1.862c0-0.951,0.212-1.724,0.637-2.321c0.425-0.6,0.981-1.066,1.67-1.4
			c0.69-0.335,1.463-0.57,2.321-0.713c0.856-0.141,1.728-0.228,2.612-0.263l1.777-0.079v-0.688c0-0.845-0.233-1.424-0.701-1.742
			c-0.471-0.316-1.022-0.475-1.659-0.475c-1.467,0-2.307,0.556-2.52,1.664l-3.394-0.316c0.247-1.442,0.884-2.485,1.908-3.129
			c1.027-0.642,2.404-0.962,4.14-0.962c1.059,0,1.961,0.127,2.704,0.383c0.743,0.254,1.34,0.618,1.79,1.094
			c0.45,0.476,0.778,1.052,0.981,1.731c0.203,0.676,0.305,1.438,0.305,2.282v8.71h-3.5L19.199,38.353L19.199,38.353z M19.121,33.946
			l-1.645,0.078c-0.778,0.035-1.405,0.115-1.883,0.238c-0.478,0.122-0.845,0.277-1.101,0.462s-0.429,0.402-0.517,0.646
			c-0.09,0.247-0.134,0.519-0.134,0.819c0,0.457,0.159,0.819,0.478,1.082c0.318,0.263,0.759,0.397,1.327,0.397
			c0.955,0,1.733-0.222,2.333-0.66c0.337-0.247,0.612-0.559,0.824-0.937s0.318-0.849,0.318-1.412
			C19.121,34.659,19.121,33.946,19.121,33.946z"/>
		<path fill="#040000" d="M25.859,26.317h3.607v1.846c0.512-0.773,1.115-1.345,1.804-1.715c0.69-0.369,1.415-0.554,2.174-0.554
			c1.008,0,1.83,0.201,2.467,0.607c0.637,0.404,1.089,0.995,1.354,1.768c0.635-0.845,1.308-1.451,2.015-1.821
			c0.708-0.369,1.486-0.554,2.335-0.554c1.431,0,2.506,0.39,3.221,1.174c0.717,0.782,1.075,2.054,1.075,3.814v9.211h-3.713v-8.71
			c0-0.491-0.046-0.893-0.134-1.2c-0.088-0.309-0.208-0.551-0.358-0.727c-0.15-0.175-0.332-0.3-0.545-0.369
			c-0.212-0.072-0.434-0.106-0.662-0.106c-0.372,0-0.713,0.062-1.022,0.184c-0.309,0.125-0.614,0.335-0.914,0.635
			c-0.249,0.247-0.448,0.526-0.597,0.844c-0.15,0.316-0.226,0.651-0.226,1.001v8.447h-3.713v-8.71c0-0.491-0.044-0.893-0.132-1.2
			c-0.09-0.309-0.208-0.551-0.358-0.727c-0.153-0.175-0.332-0.3-0.545-0.369c-0.212-0.072-0.434-0.106-0.665-0.106
			c-0.369,0-0.711,0.062-1.02,0.184c-0.309,0.125-0.614,0.335-0.916,0.635c-0.247,0.247-0.445,0.54-0.595,0.884
			s-0.226,0.718-0.226,1.121v8.288h-3.713V26.317H25.859z"/>
		<path fill="#040000" d="M57.288,38.353c-0.547,0.616-1.163,1.117-1.844,1.504c-0.681,0.388-1.56,0.582-2.64,0.582
			c-0.618,0-1.207-0.081-1.763-0.238c-0.556-0.159-1.043-0.406-1.458-0.741c-0.415-0.332-0.748-0.759-0.994-1.278
			c-0.249-0.519-0.371-1.14-0.371-1.862c0-0.951,0.212-1.724,0.637-2.321c0.424-0.6,0.98-1.066,1.67-1.4
			c0.69-0.335,1.463-0.57,2.321-0.713c0.856-0.141,1.728-0.228,2.612-0.263l1.777-0.079v-0.688c0-0.845-0.233-1.424-0.701-1.742
			c-0.471-0.316-1.022-0.475-1.659-0.475c-1.467,0-2.307,0.556-2.52,1.664l-3.394-0.316c0.247-1.442,0.884-2.485,1.908-3.129
			c1.027-0.642,2.404-0.962,4.139-0.962c1.059,0,1.961,0.127,2.705,0.383c0.743,0.254,1.34,0.618,1.79,1.094
			s0.778,1.052,0.981,1.731c0.203,0.676,0.304,1.438,0.304,2.282v8.71h-3.5V38.353z M57.21,33.946l-1.645,0.078
			c-0.778,0.035-1.405,0.115-1.883,0.238c-0.478,0.122-0.845,0.277-1.101,0.462s-0.429,0.402-0.517,0.646
			c-0.09,0.247-0.134,0.519-0.134,0.819c0,0.457,0.159,0.819,0.478,1.082s0.759,0.397,1.327,0.397c0.955,0,1.733-0.222,2.333-0.66
			c0.337-0.247,0.612-0.559,0.824-0.937s0.318-0.849,0.318-1.412C57.21,34.659,57.21,33.946,57.21,33.946z"/>
		<path fill="#040000" d="M63.28,37.587l6.738-8.392h-6.604v-2.878h11.325v2.506l-6.71,8.394h7.029l-0.344,2.877H63.28V37.587z"/>
		<path fill="#040000" d="M83.466,40.517c-2.227,0-3.95-0.635-5.171-1.901c-1.221-1.267-1.83-3.078-1.83-5.437
			c0-1.126,0.164-2.141,0.489-3.048c0.328-0.907,0.796-1.673,1.408-2.298c0.609-0.623,1.348-1.103,2.215-1.437
			c0.865-0.335,1.83-0.501,2.889-0.501c1.08,0,2.051,0.166,2.919,0.501c0.865,0.334,1.603,0.815,2.215,1.437
			c0.609,0.625,1.073,1.392,1.391,2.298c0.318,0.907,0.478,1.922,0.478,3.048c0,1.145-0.164,2.169-0.492,3.076
			c-0.325,0.904-0.794,1.675-1.405,2.31c-0.609,0.632-1.347,1.117-2.215,1.451C85.492,40.349,84.528,40.517,83.466,40.517z
			 M83.466,37.562c1.062,0,1.853-0.379,2.374-1.135c0.521-0.757,0.782-1.839,0.782-3.247s-0.261-2.48-0.782-3.221
			c-0.521-0.738-1.313-1.108-2.374-1.108c-1.059,0-1.851,0.369-2.372,1.108c-0.521,0.741-0.782,1.814-0.782,3.221
			c0,1.426,0.256,2.513,0.768,3.261C81.592,37.188,82.389,37.562,83.466,37.562z"/>
		<path fill="#040000" d="M93.282,26.317h3.606v1.899c0.547-0.808,1.198-1.398,1.95-1.768c0.752-0.369,1.534-0.554,2.347-0.554
			c1.574,0,2.741,0.409,3.503,1.228c0.759,0.817,1.14,2.107,1.14,3.865v9.107h-3.713V31.49c0-0.969-0.187-1.629-0.558-1.98
			c-0.371-0.353-0.865-0.528-1.486-0.528c-0.475,0-0.888,0.072-1.232,0.212c-0.346,0.141-0.667,0.341-0.969,0.607
			c-0.247,0.247-0.455,0.54-0.623,0.884s-0.252,0.718-0.252,1.121v8.288h-3.712L93.282,26.317L93.282,26.317z"/>
		<path fill="#040000" d="M123.119,38.353c-0.547,0.616-1.163,1.117-1.844,1.504c-0.68,0.388-1.56,0.582-2.639,0.582
			c-0.618,0-1.207-0.081-1.763-0.238c-0.556-0.159-1.043-0.406-1.458-0.741c-0.415-0.332-0.748-0.759-0.995-1.278
			c-0.249-0.519-0.371-1.14-0.371-1.862c0-0.951,0.212-1.724,0.637-2.321c0.424-0.6,0.981-1.066,1.671-1.4
			c0.69-0.335,1.463-0.57,2.321-0.713c0.856-0.141,1.728-0.228,2.612-0.263l1.777-0.079v-0.688c0-0.845-0.233-1.424-0.701-1.742
			c-0.471-0.316-1.022-0.475-1.659-0.475c-1.468,0-2.307,0.556-2.52,1.664l-3.394-0.316c0.247-1.442,0.884-2.485,1.908-3.129
			c1.027-0.642,2.404-0.962,4.14-0.962c1.059,0,1.961,0.127,2.704,0.383c0.743,0.254,1.341,0.618,1.791,1.094
			s0.778,1.052,0.981,1.731c0.203,0.676,0.305,1.438,0.305,2.282v8.71h-3.5v-1.743H123.119z M123.041,33.946l-1.645,0.078
			c-0.778,0.035-1.405,0.115-1.883,0.238c-0.478,0.122-0.845,0.277-1.101,0.462s-0.429,0.402-0.517,0.646
			c-0.09,0.247-0.134,0.519-0.134,0.819c0,0.457,0.159,0.819,0.478,1.082c0.318,0.263,0.759,0.397,1.327,0.397
			c0.955,0,1.733-0.222,2.333-0.66c0.337-0.247,0.611-0.559,0.824-0.937c0.212-0.378,0.319-0.849,0.319-1.412L123.041,33.946
			L123.041,33.946z"/>
		<path fill="#040000" d="M129.804,21.248h3.713v18.847h-3.713V21.248z"/>
		<path fill="#040000" d="M149.509,35.792c-0.247,1.551-0.87,2.725-1.869,3.526c-0.999,0.798-2.453,1.2-4.364,1.2
			c-2.298,0-4.026-0.635-5.185-1.901c-1.158-1.267-1.737-3.062-1.737-5.383c0-1.163,0.168-2.194,0.503-3.101
			c0.337-0.907,0.81-1.677,1.419-2.31c0.612-0.635,1.341-1.115,2.19-1.44c0.847-0.325,1.784-0.487,2.81-0.487
			c2.123,0,3.717,0.607,4.788,1.821c1.068,1.214,1.604,2.85,1.604,4.91v1.477h-9.601c0.034,1.11,0.318,1.975,0.849,2.601
			c0.531,0.625,1.327,0.937,2.386,0.937c1.468,0,2.335-0.616,2.601-1.848h3.606V35.792z M146.087,31.675
			c0-0.951-0.233-1.689-0.702-2.218c-0.468-0.528-1.198-0.792-2.19-0.792c-0.494,0-0.928,0.079-1.299,0.238
			c-0.371,0.157-0.685,0.374-0.941,0.646s-0.454,0.591-0.595,0.951c-0.143,0.36-0.221,0.752-0.24,1.175H146.087z"/>
		<path fill="#040000" d="M155.241,33.021l-4.536-6.703h4.377l2.361,3.932l2.651-3.932h3.872l-4.481,6.493l4.827,7.284h-4.296
			l-2.813-4.488l-2.945,4.488h-4.031L155.241,33.021z"/>
		<path fill="#040000" d="M174.125,38.353c-0.547,0.616-1.163,1.117-1.843,1.504c-0.681,0.388-1.56,0.582-2.64,0.582
			c-0.618,0-1.207-0.081-1.763-0.238c-0.556-0.159-1.043-0.406-1.458-0.741c-0.415-0.332-0.748-0.759-0.994-1.278
			c-0.249-0.519-0.372-1.14-0.372-1.862c0-0.951,0.212-1.724,0.637-2.321c0.424-0.6,0.981-1.066,1.671-1.4
			c0.69-0.335,1.463-0.57,2.321-0.713c0.856-0.141,1.728-0.228,2.612-0.263l1.777-0.079v-0.688c0-0.845-0.233-1.424-0.701-1.742
			c-0.471-0.316-1.022-0.475-1.659-0.475c-1.468,0-2.307,0.556-2.52,1.664l-3.394-0.316c0.247-1.442,0.884-2.485,1.908-3.129
			c1.027-0.642,2.404-0.962,4.14-0.962c1.059,0,1.961,0.127,2.704,0.383c0.743,0.254,1.341,0.618,1.79,1.094
			c0.45,0.476,0.778,1.052,0.981,1.731c0.203,0.676,0.305,1.438,0.305,2.282v8.71h-3.501L174.125,38.353L174.125,38.353z
			 M174.046,33.946l-1.645,0.078c-0.777,0.035-1.405,0.115-1.883,0.238c-0.478,0.122-0.844,0.277-1.1,0.462
			c-0.256,0.185-0.429,0.402-0.517,0.646c-0.09,0.247-0.134,0.519-0.134,0.819c0,0.457,0.159,0.819,0.478,1.082
			c0.318,0.263,0.759,0.397,1.327,0.397c0.955,0,1.733-0.222,2.333-0.66c0.337-0.247,0.611-0.559,0.824-0.937
			c0.212-0.378,0.318-0.849,0.318-1.412L174.046,33.946L174.046,33.946z"/>
	</g>
</g>
</svg>
